# xmcd
#
# Track frame offsets:
#	150
#	12875
#	22737
#	32175
#	42025
#	55937
#	66712
#	75487
#	85987
#	97325
#	109475
#	123525
#	133737
#	143787
#	155675
#	171285
#	182350
#
# Disc length: 2562 seconds
#
# Revision: 0
# Processed by: cddbd v1.5.2PL0 Copyright (c) Steve Scherf et al.
# Submitted via: audiograbber 1.83.01
#
DISCID=eb0a0011
DTITLE=ARS Musica Althofen - I hab di gern
DYEAR=1900
DGENRE=Folk
TTITLE0=O Diandle tiaf druntn im Tal
TTITLE1=Die hamlane Liab
TTITLE2=Übers bachle, übers Wiesle
TTITLE3=Was kümmern mi de Sternlan
TTITLE4=Bei da Gurkn
TTITLE5=Über die Alma
TTITLE6=Diandle geh her zan Zaun
TTITLE7=Du verpannter Guggu
TTITLE8=Da spate Abend
TTITLE9=I hab die gern
TTITLE10=Wia mei Diandle mei klans
TTITLE11=Was schlog den da drausn am ..
TTITLE12=Mitn Mund schweigt sie still
TTITLE13=A viereckerts Wiesle
TTITLE14=Zu dir ziagts mi hin
TTITLE15=Setz auf mei greans Hiatle
TTITLE16=Da Winta is kömman
EXTD=
EXTT0=
EXTT1=
EXTT2=
EXTT3=
EXTT4=
EXTT5=
EXTT6=
EXTT7=
EXTT8=
EXTT9=
EXTT10=
EXTT11=
EXTT12=
EXTT13=
EXTT14=
EXTT15=
EXTT16=
PLAYORDER=
